<svg width="76" height="61" viewBox="0 0 76 61" fill="none" xmlns="http://www.w3.org/2000/svg">
<path d="M36.0187 54.7491C32.4687 51.8068 30.3754 47.4412 29.0001 40.4817C29.0247 31.592 35.8341 24.0057 45.3169 21.4636C46.058 21.2649 46.8151 21.0972 47.5862 20.9623C47.6692 20.9478 47.7523 20.9337 47.8355 20.9199C49.2644 20.684 50.7402 20.5603 52.25 20.5603C65.1629 20.5603 75.5 29.5683 75.5 40.5302C75.5 51.4809 65.1839 60.4817 52.2894 60.5C44.7048 59.2915 39.5885 57.7078 36.0187 54.7491ZM3.39461 31.8738C6.9553 36.618 12.664 40.0258 19.3104 41.089L2.11106 43.6256L3.39461 31.8738ZM45.058 20.4977C35.3697 23.0949 28.217 30.8332 28.0048 40.1059C26.6258 40.3251 25.2037 40.4397 23.75 40.4397C15.0143 40.4397 7.43114 36.3035 3.46026 30.2264C1.57287 27.338 0.5 24.0103 0.5 20.4698C0.5 9.50796 10.8371 0.5 23.75 0.5C36.4993 0.5 46.7375 9.28104 46.995 20.0539C46.3391 20.1792 45.693 20.3275 45.058 20.4977Z" fill="#1B7EFF" fill-opacity="0.36" stroke="black"/>
<ellipse cx="10.4378" cy="20.8327" rx="2.93562" ry="2.58705" fill="white"/>
<ellipse cx="36.5323" cy="20.8327" rx="2.93562" ry="2.58705" fill="white"/>
<ellipse cx="23.4849" cy="20.8327" rx="2.93562" ry="2.58705" fill="white"/>
<ellipse cx="39.3048" cy="40.7121" rx="3.09871" ry="2.58705" fill="white"/>
<ellipse cx="65.3992" cy="40.7121" rx="3.09871" ry="2.58705" fill="white"/>
<ellipse cx="52.3519" cy="40.7121" rx="3.09871" ry="2.58705" fill="white"/>
</svg>
