<svg width="78" height="63" viewBox="0 0 78 63" fill="none" xmlns="http://www.w3.org/2000/svg">
<path fill-rule="evenodd" clip-rule="evenodd" d="M68.8779 53.0155L70.1349 58.8791C68.4576 61.5927 67.416 61.9945 65.4936 62C52.3785 55.1149 50.313 53.8667 46.1552 53.0155C41.9975 52.1643 11.6361 52.1643 11.6361 52.1643C5.91518 50.6877 3.90265 47.8886 1 41.7612V10.9302C4.28913 4.48807 6.68714 2.51914 11.6361 1H65.4936C71.3411 2.83376 74.3069 4.45279 77 12.2543L75.9364 46.7736C74.7354 50.9053 72.9489 52.0099 68.8779 53.0155ZM18.4046 22.8465C15.0425 20.335 15.535 18.927 18.4046 16.4155H58.8219C61.7181 18.7206 62.6727 20.061 58.8219 22.8465H18.4046ZM18.4046 37.4109C15.0425 34.8994 15.535 33.4913 18.4046 30.9798H58.8219C61.7181 33.285 62.6727 34.6253 58.8219 37.4109H18.4046Z" fill="#1B7EFF" fill-opacity="0.36" stroke="black"/>
</svg>
