<svg width="124" height="63" viewBox="0 0 124 63" fill="none" xmlns="http://www.w3.org/2000/svg">
<path d="M2.96078 14.8745H32.1849C34.4631 12.7705 34.4948 11.5952 32.1849 9.49216H2.96078C0.253251 11.3942 0.441249 12.5855 2.96078 14.8745Z" fill="#1B7EFF" fill-opacity="0.36"/>
<path d="M26.0607 31.2608C28.3906 29.3404 28.7498 28.1887 26.0607 25.8784H9.7296C7.44776 27.7996 7.06894 28.9489 9.7296 31.2608H26.0607Z" fill="#1B7EFF" fill-opacity="0.36"/>
<path d="M22.0854 47.5275C24.8596 45.4261 24.8246 44.2476 22.0854 42.1451H14.8868C12.2138 44.2474 11.6456 45.4251 14.8868 47.5275H22.0854Z" fill="#1B7EFF" fill-opacity="0.36"/>
<path d="M23.5896 56.8569H30.0361C29.3821 54.9864 29.1834 53.7255 29.3914 50.7569C30.2643 47.3377 31.0572 45.4369 34.4412 42.1451C36.5007 40.8205 38.1828 40.3438 42.3918 40.1118C45.0213 40.8032 46.514 41.3278 49.483 44.5373C51.8632 46.965 52.6909 49.2635 52.2765 56.8569H92.7819C92.0362 53.889 91.8255 52.1287 92.7819 48.3647C93.5721 45.9648 94.1888 44.613 97.0796 42.1451C98.5953 40.8729 99.0987 40.0605 105.245 40.1118C107.629 40.4117 109.082 40.906 112.659 44.5373C115.364 48.7525 116.264 51.309 114.7 56.8569H118.353C120.621 56.1014 121.5 55.3392 122.436 53.5078C123.233 45.9835 123.237 41.5891 122.113 33.2941C120.046 30.1214 118.333 28.2729 105.245 23.7255L92.1372 4.34902C91.1935 2.35438 90.2569 1.42337 85.9056 1H26.7054L24.664 1.71765C22.6446 3.60037 22.4175 4.6451 22.73 6.50196L32.1849 6.26274C33.8274 6.85458 34.7566 7.12233 36.1602 9.49216C36.9999 11.1937 36.9409 12.399 36.1602 14.8745C34.9942 16.6197 34.0479 17.2317 32.1849 18.1039H21.3333V22.7686H27.0277C28.7029 23.678 29.583 24.4095 30.7881 27.0745V29.9451C29.5531 32.5141 28.7103 33.3828 27.0277 34.251H20.6886V39.0353H23.5896C24.7524 39.52 25.4018 39.7998 26.0607 42.1451C26.9786 44.2476 26.9904 45.4261 26.0607 47.5275C24.7055 50.1306 23.5898 50.617 21.3333 50.7569V54.2255C22.3652 56.0952 22.8442 56.5881 23.5896 56.8569Z" fill="#1B7EFF" fill-opacity="0.36"/>
<path d="M34.4412 47.5275C35.7633 45.5539 36.8435 44.6901 39.7058 43.8196H42.3918C45.7814 44.7298 46.6947 45.6381 47.6564 47.5275C49.8945 51.2296 49.803 53.6783 47.6564 58.2922C45.7862 61.0102 44.5969 61.5719 42.3918 62H39.7058C37.3211 61.421 36.0365 60.6251 34.4412 58.2922C32.3762 53.3007 32.3898 50.964 34.4412 47.5275Z" fill="#1B7EFF" fill-opacity="0.36"/>
<path d="M96.22 48.3647C98.1016 45.3385 99.4821 44.4105 102.344 43.7H105.245C107.939 44.6667 111.262 48.3647 111.262 48.3647C112.407 52.3112 112.167 54.0386 111.262 56.8569C108.946 60.4268 107.622 61.2454 105.245 62H102.344C99.4221 61.1908 98.2518 59.6788 96.22 56.8569C95.0255 52.9908 95.453 51.3281 96.22 48.3647Z" fill="#1B7EFF" fill-opacity="0.36"/>
<path d="M2.96078 14.8745H32.1849C34.4631 12.7705 34.4948 11.5952 32.1849 9.49216H2.96078C0.253251 11.3942 0.441249 12.5855 2.96078 14.8745Z" stroke="black"/>
<path d="M26.0607 31.2608C28.3906 29.3404 28.7498 28.1887 26.0607 25.8784H9.7296C7.44776 27.7996 7.06894 28.9489 9.7296 31.2608H26.0607Z" stroke="black"/>
<path d="M22.0854 47.5275C24.8596 45.4261 24.8246 44.2476 22.0854 42.1451H14.8868C12.2138 44.2474 11.6456 45.4251 14.8868 47.5275H22.0854Z" stroke="black"/>
<path d="M23.5896 56.8569H30.0361C29.3821 54.9864 29.1834 53.7255 29.3914 50.7569C30.2643 47.3377 31.0572 45.4369 34.4412 42.1451C36.5007 40.8205 38.1828 40.3438 42.3918 40.1118C45.0213 40.8032 46.514 41.3278 49.483 44.5373C51.8632 46.965 52.6909 49.2635 52.2765 56.8569H92.7819C92.0362 53.889 91.8255 52.1287 92.7819 48.3647C93.5721 45.9648 94.1888 44.613 97.0796 42.1451C98.5953 40.8729 99.0987 40.0605 105.245 40.1118C107.629 40.4117 109.082 40.906 112.659 44.5373C115.364 48.7525 116.264 51.309 114.7 56.8569H118.353C120.621 56.1014 121.5 55.3392 122.436 53.5078C123.233 45.9835 123.237 41.5891 122.113 33.2941C120.046 30.1214 118.333 28.2729 105.245 23.7255L92.1372 4.34902C91.1935 2.35438 90.2569 1.42337 85.9056 1H26.7054L24.664 1.71765C22.6446 3.60037 22.4175 4.6451 22.73 6.50196L32.1849 6.26274C33.8274 6.85458 34.7566 7.12233 36.1602 9.49216C36.9999 11.1937 36.9409 12.399 36.1602 14.8745C34.9942 16.6197 34.0479 17.2317 32.1849 18.1039H21.3333V22.7686H27.0277C28.7029 23.678 29.583 24.4095 30.7881 27.0745V29.9451C29.5531 32.5141 28.7103 33.3828 27.0277 34.251H20.6886V39.0353H23.5896C24.7524 39.52 25.4018 39.7998 26.0607 42.1451C26.9786 44.2476 26.9904 45.4261 26.0607 47.5275C24.7055 50.1306 23.5898 50.617 21.3333 50.7569V54.2255C22.3652 56.0952 22.8442 56.5881 23.5896 56.8569Z" stroke="black"/>
<path d="M34.4412 47.5275C35.7633 45.5539 36.8435 44.6901 39.7058 43.8196H42.3918C45.7814 44.7298 46.6947 45.6381 47.6564 47.5275C49.8945 51.2296 49.803 53.6783 47.6564 58.2922C45.7862 61.0102 44.5969 61.5719 42.3918 62H39.7058C37.3211 61.421 36.0365 60.6251 34.4412 58.2922C32.3762 53.3007 32.3898 50.964 34.4412 47.5275Z" stroke="black"/>
<path d="M96.22 48.3647C98.1016 45.3385 99.4821 44.4105 102.344 43.7H105.245C107.939 44.6667 111.262 48.3647 111.262 48.3647C112.407 52.3112 112.167 54.0386 111.262 56.8569C108.946 60.4268 107.622 61.2454 105.245 62H102.344C99.4221 61.1908 98.2518 59.6788 96.22 56.8569C95.0255 52.9908 95.453 51.3281 96.22 48.3647Z" stroke="black"/>
</svg>
