<svg width="78" height="63" viewBox="0 0 78 63" fill="none" xmlns="http://www.w3.org/2000/svg">
<path d="M1 62V48.9286L27.9504 12.619H31.7234H37.1135L45.7376 1H59.2128L58.8811 12.619H71.6099H77V24.9643L50.5886 62H43.5816V59.0952H6.92908V62H1Z" fill="#1B7EFF" fill-opacity="0.36"/>
<path d="M1 48.9286V62H6.92908V59.0952M1 48.9286L27.9504 12.619H31.7234M1 48.9286H6.92908M31.7234 12.619L26.3082 20.5492M31.7234 12.619H37.1135M6.92908 48.9286L7.92085 47.4762M6.92908 48.9286V59.0952M50.5886 62H43.5816V59.0952M50.5886 62V48.9286M50.5886 62L77 24.9643V12.619M50.5886 48.9286H43.5816M50.5886 48.9286L77 12.619M43.5816 48.9286V59.0952M43.5816 48.9286L49.1872 41.6667M71.6099 12.619H77M71.6099 12.619L61.5197 25.6905M71.6099 12.619H50.5886M43.5816 47.4762H9.08511H7.92085M7.92085 47.4762L11.8879 41.6667M6.92908 59.0952H43.5816M11.8879 41.6667L14.8633 37.3095M11.8879 41.6667H27.9504M49.1872 41.6667H41.9645M49.1872 41.6667L52.5506 37.3095M14.8633 37.3095H27.9504M14.8633 37.3095L18.8304 31.5M27.9504 37.3095V41.6667M27.9504 37.3095V31.5M27.9504 41.6667H41.9645M41.9645 41.6667V24.9643H27.9504M41.9645 41.6667L45.3064 37.3095M27.9504 24.9643V31.5M27.9504 24.9643H23.2933M27.9504 24.9643L31.2274 20.5492M59.2128 1H45.7376L37.1135 12.619M59.2128 1L58.6738 19.881M59.2128 1L50.5886 12.619M58.6738 19.881L54.218 25.6905M58.6738 19.881H66.0042M42.5035 24.2381L50.5886 12.619M45.3064 37.3095H52.5506M45.3064 37.3095L49.7622 31.5M52.5506 37.3095L57.0352 31.5M18.8304 31.5H27.9504M18.8304 31.5L23.2933 24.9643M49.7622 31.5H57.0352M49.7622 31.5L54.218 25.6905M57.0352 31.5L61.5197 25.6905M23.2933 24.9643L26.3082 20.5492M54.218 25.6905H61.5197M26.3082 20.5492H31.2274M31.2274 20.5492L37.1135 12.619" stroke="black" stroke-opacity="0.63"/>
</svg>
