<svg width="75" height="72" viewBox="0 0 75 72" fill="none" xmlns="http://www.w3.org/2000/svg">
<g filter="url(#filter0_d)">
<path fill-rule="evenodd" clip-rule="evenodd" d="M69 34C69 51.6731 54.0015 66 35.5 66C16.9985 66 2 51.6731 2 34C2 16.3269 16.9985 2 35.5 2C54.0015 2 69 16.3269 69 34ZM44.5001 38L37.5001 40.5C32.7013 39.792 30.9321 37.6638 28.5001 32.5L32.5001 28.5C31.6405 24.9149 30.3888 22.6658 24.5001 17.5C21.4653 19.2954 19.99 20.4395 19.0001 23.5C17.4929 27.6008 17.7415 29.8998 19.0001 34C24.8375 42.0711 29.0677 46.2161 39.5001 52.5C42.2343 53.1533 43.7656 53.4763 46.5001 52.5C49.6697 50.5083 51.2287 49.1927 52.0001 45C51.0269 41.9107 50.0063 40.2649 44.5001 38Z" fill="#6EA7F4"/>
<path d="M45.0707 36.6128L44.538 36.3937L43.9956 36.5874L37.3563 38.9585C35.3796 38.6222 34.1424 38.0208 33.1402 37.0782C32.1624 36.1586 31.3149 34.8312 30.3136 32.8078L33.5607 29.5607L34.1545 28.9669L33.9587 28.1503C33.5001 26.2372 32.911 24.5888 31.6159 22.734C30.3536 20.9264 28.4586 18.9772 25.4893 16.3724L24.672 15.6554L23.7363 16.209C22.2176 17.1075 20.9342 17.9286 19.91 18.9777C18.8526 20.0607 18.1327 21.3184 17.5821 23.01C16.7927 25.1646 16.4277 26.9475 16.4632 28.7794C16.4985 30.5948 16.9268 32.3574 17.5661 34.4402L17.639 34.6777L17.7847 34.8791C23.7428 43.117 28.1243 47.3989 38.7261 53.7849L38.9253 53.9049L39.1515 53.9589C40.495 54.2799 41.7046 54.5631 42.9432 54.61C44.2306 54.6588 45.4882 54.454 47.0045 53.9127L47.1591 53.8574L47.2982 53.7701C48.8845 52.7732 50.2642 51.8318 51.3203 50.5129C52.4056 49.1575 53.0611 47.5228 53.4753 45.2714L53.5428 44.9048L53.4308 44.5493C52.9221 42.9344 52.3362 41.4752 51.0183 40.138C49.7388 38.8397 47.8821 37.7692 45.0707 36.6128ZM67.5 34C67.5 50.7807 53.2386 64.5 35.5 64.5C17.7614 64.5 3.5 50.7807 3.5 34C3.5 17.2193 17.7614 3.5 35.5 3.5C53.2386 3.5 67.5 17.2193 67.5 34Z" stroke="white" stroke-width="3"/>
</g>
<defs>
<filter id="filter0_d" x="0" y="0" width="75" height="72" filterUnits="userSpaceOnUse" color-interpolation-filters="sRGB">
<feFlood flood-opacity="0" result="BackgroundImageFix"/>
<feColorMatrix in="SourceAlpha" type="matrix" values="0 0 0 0 0 0 0 0 0 0 0 0 0 0 0 0 0 0 127 0"/>
<feOffset dx="2" dy="2"/>
<feGaussianBlur stdDeviation="2"/>
<feColorMatrix type="matrix" values="0 0 0 0 0 0 0 0 0 0 0 0 0 0 0 0 0 0 1 0"/>
<feBlend mode="normal" in2="BackgroundImageFix" result="effect1_dropShadow"/>
<feBlend mode="normal" in="SourceGraphic" in2="effect1_dropShadow" result="shape"/>
</filter>
</defs>
</svg>
