<svg width="75" height="72" viewBox="0 0 75 72" fill="none" xmlns="http://www.w3.org/2000/svg">
<g filter="url(#filter0_d)">
<path fill-rule="evenodd" clip-rule="evenodd" d="M35.5 66C54.0015 66 69 51.6731 69 34C69 16.3269 54.0015 2 35.5 2C16.9985 2 2 16.3269 2 34C2 51.6731 16.9985 66 35.5 66ZM15.6097 42.0992C15.6097 42.0992 14.0392 49.599 15.6097 48.5992C17.1803 47.5994 54.8678 48.0994 56.4379 48.5992C58.0079 49.099 56.4379 42.0992 56.4379 42.0992C55.1965 38.3169 53.3483 36.667 49.1097 34.0992C45.9852 32.8031 43.8293 33.0204 39.6879 34.0992C49.1327 23.0164 49.3151 17.768 39.1644 10.5992H33.4066C23.1182 18.299 23.9041 23.5389 33.93 34.0992C29.0526 33.037 26.4336 33.1346 21.891 34.0992C18.3279 36.34 17.1472 38.245 15.6097 42.0992Z" fill="#6EA7F4"/>
<path d="M14.2165 41.5434L14.1683 41.6643L14.1416 41.7917L15.6097 42.0992C14.1416 41.7917 14.1416 41.7919 14.1415 41.7921L14.1414 41.7926L14.1411 41.7941L14.14 41.7992L14.1363 41.8174L14.1226 41.8843C14.1108 41.942 14.0941 42.0254 14.0734 42.1305C14.0322 42.3406 13.9753 42.6383 13.9122 42.9919C13.7867 43.6952 13.6334 44.6367 13.5301 45.5569C13.4315 46.4359 13.3604 47.44 13.4598 48.2C13.4862 48.4015 13.5298 48.6304 13.6079 48.8579C13.6818 49.0729 13.8188 49.3831 14.0883 49.6576C14.3934 49.9686 14.8317 50.1909 15.3507 50.191C15.7179 50.191 16.0249 50.0795 16.2533 49.9588C16.31 49.947 16.3966 49.9316 16.5192 49.9143C16.83 49.8705 17.2753 49.8277 17.853 49.7882C19.0029 49.7095 20.5835 49.6495 22.465 49.6068C26.2228 49.5213 31.1138 49.5056 36.0144 49.5369C40.9135 49.5681 45.8103 49.646 49.5767 49.7472C51.461 49.7979 53.0549 49.8541 54.2218 49.9128C54.8067 49.9422 55.2731 49.9717 55.6106 50.0005C55.7803 50.0149 55.905 50.0281 55.9898 50.0394C56.0153 50.0427 56.0335 50.0455 56.0456 50.0474C56.36 50.1368 56.7461 50.1671 57.152 50.0378C57.586 49.8995 57.8918 49.6267 58.09 49.3615C58.4398 48.8937 58.5442 48.3347 58.5885 47.9813C58.6862 47.2035 58.6165 46.2219 58.5166 45.3633C58.4128 44.4705 58.2586 43.5729 58.1325 42.9063C58.0691 42.571 58.0119 42.2899 57.9704 42.0916C57.9497 41.9924 57.9328 41.9137 57.9209 41.8591L57.907 41.7957L57.9031 41.7783L57.902 41.7733L57.9017 41.7718L57.9016 41.7713C57.9015 41.7711 57.9015 41.7709 56.4379 42.0992L57.9015 41.7709L57.8856 41.7002L57.8631 41.6315C57.1869 39.5712 56.3131 38.007 54.9847 36.6101C53.6914 35.25 52.0229 34.1103 49.8869 32.8163L49.7896 32.7573L49.6845 32.7137C47.9613 31.9989 46.4361 31.6773 44.752 31.7089C44.3342 31.7167 43.911 31.7463 43.4777 31.7951C44.6306 30.2715 45.5871 28.8409 46.3331 27.4815C47.5926 25.1862 48.2998 23.0079 48.2744 20.8637C48.2224 16.4837 45.1537 12.9927 40.0297 9.37396L39.6407 9.09921H39.1644H33.4066H32.9075L32.5078 9.39828C27.3194 13.2813 24.3512 16.9366 24.552 21.3448C24.65 23.4951 25.5025 25.6354 26.9031 27.8554C27.7197 29.1497 28.7427 30.5022 29.9558 31.9338C29.2115 31.8658 28.4925 31.8344 27.775 31.8392C25.7977 31.8524 23.8953 32.1402 21.5794 32.6319L21.3183 32.6874L21.0924 32.8295C19.2055 34.0161 17.8653 35.1678 16.7927 36.5916C15.7352 37.9953 14.9964 39.5884 14.2165 41.5434ZM16.1788 49.9773C16.1784 49.9771 16.1847 49.975 16.1989 49.9714C16.1862 49.9756 16.1791 49.9775 16.1788 49.9773ZM67.5 34C67.5 50.7807 53.2386 64.5 35.5 64.5C17.7614 64.5 3.5 50.7807 3.5 34C3.5 17.2193 17.7614 3.5 35.5 3.5C53.2386 3.5 67.5 17.2193 67.5 34Z" stroke="white" stroke-width="3"/>
</g>
<defs>
<filter id="filter0_d" x="0" y="0" width="75" height="72" filterUnits="userSpaceOnUse" color-interpolation-filters="sRGB">
<feFlood flood-opacity="0" result="BackgroundImageFix"/>
<feColorMatrix in="SourceAlpha" type="matrix" values="0 0 0 0 0 0 0 0 0 0 0 0 0 0 0 0 0 0 127 0"/>
<feOffset dx="2" dy="2"/>
<feGaussianBlur stdDeviation="2"/>
<feColorMatrix type="matrix" values="0 0 0 0 0 0 0 0 0 0 0 0 0 0 0 0 0 0 1 0"/>
<feBlend mode="normal" in2="BackgroundImageFix" result="effect1_dropShadow"/>
<feBlend mode="normal" in="SourceGraphic" in2="effect1_dropShadow" result="shape"/>
</filter>
</defs>
</svg>
