<svg width="75" height="72" viewBox="0 0 75 72" fill="none" xmlns="http://www.w3.org/2000/svg">
<g filter="url(#filter0_d)">
<path fill-rule="evenodd" clip-rule="evenodd" d="M69 34C69 51.6731 54.0015 66 35.5 66C16.9985 66 2 51.6731 2 34C2 16.3269 16.9985 2 35.5 2C54.0015 2 69 16.3269 69 34ZM44.5001 38L37.5001 40.5C32.7013 39.792 30.9321 37.6638 28.5001 32.5L32.5001 28.5C31.6405 24.9149 30.3888 22.6658 24.5001 17.5C21.4653 19.2954 19.99 20.4395 19.0001 23.5C17.4929 27.6008 17.7415 29.8998 19.0001 34C24.8375 42.0711 29.0677 46.2161 39.5001 52.5C42.2343 53.1533 43.7656 53.4763 46.5001 52.5C49.6697 50.5083 51.2287 49.1927 52.0001 45C51.0269 41.9107 50.0063 40.2649 44.5001 38Z" fill="#6EA7F4"/>
</g>
<defs>
<filter id="filter0_d" x="0" y="0" width="75" height="72" filterUnits="userSpaceOnUse" color-interpolation-filters="sRGB">
<feFlood flood-opacity="0" result="BackgroundImageFix"/>
<feColorMatrix in="SourceAlpha" type="matrix" values="0 0 0 0 0 0 0 0 0 0 0 0 0 0 0 0 0 0 127 0"/>
<feOffset dx="2" dy="2"/>
<feGaussianBlur stdDeviation="2"/>
<feColorMatrix type="matrix" values="0 0 0 0 0 0 0 0 0 0 0 0 0 0 0 0 0 0 1 0"/>
<feBlend mode="normal" in2="BackgroundImageFix" result="effect1_dropShadow"/>
<feBlend mode="normal" in="SourceGraphic" in2="effect1_dropShadow" result="shape"/>
</filter>
</defs>
</svg>
