<svg width="75" height="72" viewBox="0 0 75 72" fill="none" xmlns="http://www.w3.org/2000/svg">
<g filter="url(#filter0_d)">
<path d="M41.3462 34L55.5 19.5H52.6095L35.5 38L18 19.5H15L29.5 34L30.5127 35.0127L35.5 40L40.3594 35.0127L41.3462 34Z" fill="#6EA7F4"/>
<path d="M55.5 48.5L41.3462 34L40.3594 35.0127L53 48.5H55.5Z" fill="#6EA7F4"/>
<path d="M29.5 34L15 48.5H17.7491L30.5127 35.0127L29.5 34Z" fill="#6EA7F4"/>
<path fill-rule="evenodd" clip-rule="evenodd" d="M69 34C69 51.6731 54.0015 66 35.5 66C16.9985 66 2 51.6731 2 34C2 16.3269 16.9985 2 35.5 2C54.0015 2 69 16.3269 69 34ZM15 48.5V19.5H55.5V48.5H15Z" fill="#6EA7F4"/>
<path d="M40.3594 35.0127L35.5 40H36L40.3594 35.0127Z" fill="#6EA7F4"/>
<path d="M35.5 40L30.5127 35.0127L35 40H35.5Z" fill="#6EA7F4"/>
<path d="M57 18H55.5H52.6095H51.9536H18.6459H18H15H13.5V19.5V48.5V50H15H17.7491H18.3948H52.35H53H55.5H57V48.5V19.5V18ZM67.5 34C67.5 50.7807 53.2386 64.5 35.5 64.5C17.7614 64.5 3.5 50.7807 3.5 34C3.5 17.2193 17.7614 3.5 35.5 3.5C53.2386 3.5 67.5 17.2193 67.5 34Z" stroke="white" stroke-width="3"/>
</g>
<defs>
<filter id="filter0_d" x="0" y="0" width="75" height="72" filterUnits="userSpaceOnUse" color-interpolation-filters="sRGB">
<feFlood flood-opacity="0" result="BackgroundImageFix"/>
<feColorMatrix in="SourceAlpha" type="matrix" values="0 0 0 0 0 0 0 0 0 0 0 0 0 0 0 0 0 0 127 0"/>
<feOffset dx="2" dy="2"/>
<feGaussianBlur stdDeviation="2"/>
<feColorMatrix type="matrix" values="0 0 0 0 0 0 0 0 0 0 0 0 0 0 0 0 0 0 1 0"/>
<feBlend mode="normal" in2="BackgroundImageFix" result="effect1_dropShadow"/>
<feBlend mode="normal" in="SourceGraphic" in2="effect1_dropShadow" result="shape"/>
</filter>
</defs>
</svg>
