<svg width="75" height="72" viewBox="0 0 75 72" fill="none" xmlns="http://www.w3.org/2000/svg">
<g filter="url(#filter0_d)">
<path fill-rule="evenodd" clip-rule="evenodd" d="M35.5 66C54.0015 66 69 51.6731 69 34C69 16.3269 54.0015 2 35.5 2C16.9985 2 2 16.3269 2 34C2 51.6731 16.9985 66 35.5 66ZM15.6097 42.0992C15.6097 42.0992 14.0392 49.599 15.6097 48.5992C17.1803 47.5994 54.8678 48.0994 56.4379 48.5992C58.0079 49.099 56.4379 42.0992 56.4379 42.0992C55.1965 38.3169 53.3483 36.667 49.1097 34.0992C45.9852 32.8031 43.8293 33.0204 39.6879 34.0992C49.1327 23.0164 49.3151 17.768 39.1644 10.5992H33.4066C23.1182 18.299 23.9041 23.5389 33.93 34.0992C29.0526 33.037 26.4336 33.1346 21.891 34.0992C18.3279 36.34 17.1472 38.245 15.6097 42.0992Z" fill="#6EA7F4"/>
</g>
<defs>
<filter id="filter0_d" x="0" y="0" width="75" height="72" filterUnits="userSpaceOnUse" color-interpolation-filters="sRGB">
<feFlood flood-opacity="0" result="BackgroundImageFix"/>
<feColorMatrix in="SourceAlpha" type="matrix" values="0 0 0 0 0 0 0 0 0 0 0 0 0 0 0 0 0 0 127 0"/>
<feOffset dx="2" dy="2"/>
<feGaussianBlur stdDeviation="2"/>
<feColorMatrix type="matrix" values="0 0 0 0 0 0 0 0 0 0 0 0 0 0 0 0 0 0 1 0"/>
<feBlend mode="normal" in2="BackgroundImageFix" result="effect1_dropShadow"/>
<feBlend mode="normal" in="SourceGraphic" in2="effect1_dropShadow" result="shape"/>
</filter>
</defs>
</svg>
